<?xml version="1.0" encoding="UTF-8" standalone="no"?>
<!-- Created with Inkscape (http://www.inkscape.org/) -->
<svg
   xmlns:svg="http://www.w3.org/2000/svg"
   xmlns="http://www.w3.org/2000/svg"
   version="1.0"
   width="257.90302"
   height="362.90302"
   id="svg2">
  <defs
     id="defs4" />
  <g
     transform="translate(13.9515,9.589317)"
     id="layer1">
    <path
       d="M 98.80415,304.20575 C 96.2011,302.98217 95.04692,300.19857 92.57435,298.89145 C 89.680201,296.66948 86.293269,295.10794 83.809023,292.38135 C 81.746299,290.86426 80.155511,289.03702 78.039081,287.56016 C 74.765962,284.88137 70.996006,282.34497 69.108726,278.41089 C 68.100764,276.33185 66.311469,274.1388 66.679066,271.37944 C 66.683369,269.55173 66.31587,267.46262 64.089161,267.56657 C 62.745744,265.44245 62.871997,262.54138 62.356574,260.34426 C 61.909866,257.51542 61.74953,254.62026 61.136018,251.84686 C 60.805324,249.00171 60.25878,246.11616 59.848998,243.22376 C 59.152883,240.64007 58.965727,237.932 58.635139,235.34756 C 58.189542,232.75349 58.380775,229.94244 57.829245,227.30431 C 57.641925,224.89058 57.286107,222.77848 57.026567,220.20805 C 56.799767,217.30637 56.611654,214.33972 56.062462,211.53416 C 55.72857,208.97798 55.049869,206.43923 54.814385,203.83405 C 54.637991,201.23561 54.411858,198.664 54.168036,196.3138 C 53.462684,193.82506 53.667956,191.03492 53.146376,188.47046 C 52.418684,185.63382 52.72028,183.4976 51.737822,180.78806 C 51.593287,178.38384 50.746423,176.15311 50.816491,173.85579 C 50.692138,171.98209 49.986621,168.4782 49.560776,166.02353 C 49.384419,163.52263 49.121155,161.82914 48.80758,159.43899 C 48.519765,157.02513 48.269884,154.83459 48.019606,152.34509 C 47.162896,152.09266 48.702469,151.57809 47.927548,150.54951 C 48.280347,149.36165 47.098557,147.22913 47.347636,145.50688 C 47.15284,142.25338 46.456571,139.07372 46.211334,135.81986 C 46.154363,132.85262 44.860257,130.08734 44.841088,127.11708 C 44.672734,124.84178 43.841266,122.17348 43.658422,120.24786 C 43.235509,118.15182 42.895568,115.56395 42.610852,113.26828 C 42.082159,109.1067 41.979572,104.86555 41.20255,100.74959 C 40.674142,96.69318 39.278678,92.7838 39.042402,88.67036 C 38.221739,85.81225 37.998058,82.740693 37.232614,79.841724 C 37.22152,77.10712 36.09535,74.663726 35.872031,71.99942 C 35.248028,69.049164 34.60307,66.094385 33.907067,63.163775 C 33.369912,60.240323 32.550453,57.420432 31.735668,54.563581 C 30.596205,52.069889 30.965736,48.476286 34.376018,48.558825 C 38.767809,47.402681 42.642175,44.948132 46.906162,43.436832 C 51.984209,41.070783 57.294497,39.212417 62.449279,37.011757 C 65.146532,35.74536 68.188781,35.300741 70.846945,33.834071 C 73.068049,32.86938 75.510445,32.192277 77.858384,31.201967 C 80.669825,30.286027 83.357671,29.306192 86.141572,28.356257 C 89.651219,26.947486 93.36483,25.768021 96.66009,24.000957 C 99.20388,23.408689 101.44737,22.419089 103.92732,21.596023 C 107.4377,19.957708 111.29632,19.238734 114.69445,17.33505 C 117.8715,15.579416 121.49361,15.131107 124.82196,13.746319 C 127.07297,13.143392 128.95403,11.9223 131.38077,11.798257 C 133.82725,12.72067 135.84329,14.316602 138.27473,15.279795 C 142.1923,17.545018 146.0487,20.01016 150.44295,21.276269 C 152.38803,22.446895 154.42656,23.516891 156.49657,24.702052 C 159.30797,26.166701 162.11412,27.64044 164.77433,29.354558 C 168.84633,31.444133 173.42543,32.933916 177.41419,35.345965 C 179.10522,39.119666 178.3052,43.484072 179.42516,47.434951 C 179.84556,50.967933 180.01757,54.517131 180.24746,58.070712 C 181.28621,62.928811 180.88934,67.933602 181.61134,72.824502 C 181.84627,77.771356 182.17356,82.705279 182.96374,87.59533 C 183.51453,90.29863 183.51638,92.69817 183.7034,95.44408 C 183.54615,98.01268 185.13634,102.07122 181.4973,102.58101 C 180.38368,104.29221 184.88332,104.28251 185.22272,106.22406 C 187.67015,109.01535 186.27829,112.98017 185.85728,116.24644 C 185.0901,122.93871 186.8543,129.58147 186.65934,136.28133 C 186.62018,141.6181 187.05767,146.94501 186.99907,152.27771 C 187.11794,154.15812 186.84102,156.05613 187.0747,158.35872 C 186.97279,161.14887 187.17078,163.91426 187.20611,166.72147 C 187.39011,173.9372 187.85659,181.14244 187.73609,188.36452 C 187.6565,191.57148 187.9367,194.7445 188.43597,197.9042 C 188.88607,201.34801 189.10401,205.01799 188.96401,208.37626 C 189.59018,210.96064 190.12375,213.71707 189.71532,216.42769 C 189.75694,219.8198 190.0579,223.26437 190.85653,226.51296 C 191.07113,228.36386 191.7973,230.30909 191.9806,232.41718 C 192.52093,235.40647 192.97044,238.39862 192.79943,241.4541 C 192.44242,244.27343 193.49274,247.41265 192.69329,250.02046 C 190.8566,251.14266 189.17096,252.26724 190.30221,254.60486 C 190.52854,257.80426 190.23765,261.03459 190.03638,264.09306 C 187.20609,265.15821 184.82428,267.08284 181.82382,267.74282 C 179.08356,268.83664 176.43664,270.01002 173.69947,271.10426 C 167.64008,273.70729 161.72396,276.60895 155.78321,279.46701 C 153.23238,280.70651 150.50267,281.55542 147.87403,282.74166 C 143.39743,284.62113 138.9181,286.42509 134.51623,288.44146 C 132.3482,289.66141 129.95157,290.55931 127.70645,291.71911 C 122.42543,293.9281 117.2999,296.47595 112.03947,298.73721 C 109.43516,300.11202 106.61715,301.0364 103.94382,302.31142 C 102.19817,302.60512 100.4285,304.61895 98.80415,304.20575 z M 101.66244,298.81186 C 103.29837,297.03901 105.43131,297.1289 107.78521,295.83686 C 111.87173,294.08273 115.77353,291.88364 120.03977,290.57759 C 122.48977,289.41539 125.12384,288.53005 127.6973,287.48286 C 130.50085,286.47694 133.43378,285.58281 135.97365,284.07356 C 138.44838,282.96106 141.22656,281.22521 143.32903,280.45674 C 145.77542,279.2461 148.94558,279.41037 151.017,277.63186 C 153.50128,276.44964 155.72025,274.75073 158.24575,273.61645 C 161.56752,272.39542 164.85836,271.10616 168.02176,269.51101 C 171.60383,268.28039 175.03472,266.60236 178.49,265.06544 C 180.85427,263.58818 183.303,262.34146 185.65186,260.88045 C 186.31248,259.02017 185.60626,255.79856 186.0113,254.1771 C 182.78629,255.23068 179.71073,256.65567 176.56421,257.89236 C 174.29739,258.69455 172.90869,259.98407 170.60727,260.75426 C 167.81883,261.62085 165.3375,263.11318 162.58356,264.18116 C 160.03807,265.04331 157.6339,266.55343 155.00769,267.50624 C 152.29063,268.33386 149.86265,269.92222 147.31289,271.00867 C 144.32697,272.2506 141.20882,273.42252 138.41929,274.98706 C 136.39255,276.0762 133.70975,277.09928 131.43757,278.31845 C 129.06442,279.62532 126.27851,280.48161 124.15669,282.07886 C 121.4069,283.18995 118.80564,284.5458 116.22002,285.95689 C 113.68642,287.0332 111.47496,288.21828 109.29531,289.06068 C 106.10985,290.28262 102.90412,291.47712 99.65317,292.52452 C 98.31678,293.23676 100.66387,296.67525 100.67765,298.47603 C 100.77933,298.87285 101.29388,299.17609 101.66244,298.81186 z M 105.50986,293.93866 C 104.0344,291.47374 109.48314,291.0943 111.12083,289.93814 C 112.64824,288.96542 118.2236,285.67769 117.0196,289.6574 C 114.26278,290.59327 112.01549,292.49909 109.19723,293.35687 C 108.01957,293.68383 106.74038,294.55799 105.50986,293.93866 z M 126.59853,284.87445 C 125.17915,281.4192 130.84908,281.78092 132.85838,280.46426 C 135.56561,279.77464 138.27504,277.15152 140.87776,277.44235 C 142.94396,279.60791 138.76182,279.91119 137.29638,280.97942 C 135.36743,282.24371 133.20153,283.0089 131.04481,283.83841 C 129.65604,284.18645 127.97335,285.52404 126.59853,284.87445 z M 146.48462,275.50146 C 145.94944,272.58729 150.99841,273.16077 152.6264,271.45046 C 155.0374,270.53225 157.19467,268.7693 159.52891,268.18843 C 162.48727,268.60885 159.85563,271.52636 158.02892,271.67404 C 155.26677,272.64162 152.80606,274.34769 150.0681,275.39116 C 149.00246,275.40786 147.21432,276.75172 146.48462,275.50146 z M 167.1089,266.31766 C 166.32366,263.22085 171.7812,263.80683 173.3821,261.91966 C 176.02384,260.5512 178.86494,259.1905 181.9071,259.27538 C 184.32036,262.25639 178.37432,261.93549 176.80233,263.2359 C 174.14122,264.14628 171.99586,266.10119 169.10963,266.58526 C 168.45446,266.69659 167.57507,267.01661 167.1089,266.31766 z M 96.25135,292.87357 C 95.89273,290.22872 93.40451,288.62109 91.341484,286.84878 C 88.647208,284.95352 86.395634,282.41143 83.557755,280.60682 C 80.944121,278.67669 78.480213,276.55575 75.88958,274.59175 C 74.480704,273.51256 71.997058,271.02089 70.983431,271.15698 C 70.515919,274.32374 73.631866,275.21114 75.415716,277.11126 C 78.927099,280.0263 82.092849,283.51633 85.812665,286.06874 C 88.21787,288.1949 91.138672,289.63773 93.57811,291.73576 C 94.11071,291.79641 96.34984,294.62513 96.25135,292.87357 z M 97.37194,286.92157 C 96.88603,284.73267 96.00811,282.86498 96.12209,280.18876 C 95.7652,276.95563 95.3202,273.72856 94.97102,270.49909 C 94.86404,267.22533 94.49524,263.97128 94.27193,260.70657 C 94.13676,258.11047 92.92173,255.67299 93.32611,253.36426 C 92.83972,250.88435 92.31959,248.25756 91.95718,245.83348 C 91.901483,243.91248 91.342196,242.14508 91.374161,240.12026 C 91.020467,238.3707 90.960851,236.11772 90.559469,235.24936 C 90.25642,232.87479 89.865775,230.56055 89.36037,228.32736 C 89.034909,225.87335 88.807301,223.48728 88.357547,220.87031 C 88.072652,217.40688 87.344952,214.01222 87.216004,210.52888 C 86.797228,206.40822 86.457617,202.28779 85.886515,198.19463 C 85.444581,195.34316 84.914477,192.47051 84.572577,189.60289 C 84.41657,186.97065 84.260271,185.49752 83.725198,182.82537 C 83.317074,180.85491 83.760614,178.7362 83.316337,176.528 C 83.034818,173.78358 82.207807,171.86697 82.570939,169.17958 C 82.285335,167.24429 82.352883,164.24241 82.135592,161.89609 C 81.27341,159.02883 81.548506,155.97476 80.700653,153.10128 C 80.391376,150.10087 79.691818,147.16719 79.350464,144.14714 C 78.86972,142.13729 78.876935,139.59002 78.24783,137.34302 C 77.908525,134.80806 78.064287,131.98127 76.643313,129.84559 C 77.103254,127.55896 76.137404,125.39275 76.560276,123.30016 C 75.980565,118.9409 76.209631,114.46111 75.453668,110.17036 C 75.688335,107.55422 74.308969,104.93473 74.858085,102.68458 C 74.71157,100.49688 74.964982,97.39819 74.397317,94.90382 C 74.279607,92.10321 73.418075,89.50759 73.335034,86.76041 C 73.243841,84.12002 72.892085,81.579837 72.577163,78.956241 C 71.618039,75.557238 71.809823,71.860711 70.901716,68.510505 C 68.636141,67.10387 67.493268,66.723691 65.098771,65.977633 C 60.368033,64.511801 56.142019,61.855135 51.622741,59.875657 C 48.830357,58.160253 45.594224,57.403364 42.743298,55.840657 C 41.145732,54.961628 38.737254,53.464161 37.205844,53.788632 C 38.106669,58.100709 39.7296,62.349888 39.466424,66.822882 C 39.73669,68.912394 39.665785,71.409628 40.150228,73.701833 C 40.756064,76.480129 40.840953,79.4374 41.567955,82.121757 C 41.896461,85.34442 42.835895,88.44718 43.149576,91.67426 C 43.688366,95.08509 44.103364,98.51411 44.69596,101.90921 C 44.659297,104.21059 45.60666,107.1089 46.168657,109.59668 C 47.042777,113.56709 48.093268,117.51305 48.0707,121.6198 C 48.417298,127.2422 50.141964,132.66975 50.43138,138.29085 C 50.289108,141.00221 51.377384,143.28585 51.365586,146.01571 C 51.760355,148.51812 52.233951,150.88521 52.540729,153.32376 C 52.625789,156.14661 53.248348,158.8999 53.802875,161.66381 C 54.562125,164.49327 54.101658,167.71907 55.539836,170.28061 C 55.294036,172.69968 56.899789,175.41522 56.844549,178.06857 C 56.941715,180.90632 57.324217,183.6973 58.202402,186.35845 C 58.710031,189.02247 58.941085,191.71795 58.929518,194.48304 C 59.018867,197.45448 59.765646,200.33478 60.251503,203.26868 C 60.391514,205.16591 60.288977,206.6174 60.286535,208.71696 C 60.625217,211.25228 61.383358,213.63417 61.917677,216.10764 C 62.486702,219.71725 61.700423,223.5512 63.216154,226.97136 C 63.588254,229.23069 62.470896,231.82618 63.609988,233.46076 C 63.549445,235.58961 64.206802,238.27735 64.86638,240.4254 C 64.617814,242.9845 65.524951,245.89153 65.63048,248.58414 C 66.376366,253.60643 67.009463,258.63562 67.497312,263.6907 C 68.936894,265.92738 71.144699,267.98703 73.522106,269.44147 C 76.049493,270.89348 77.966274,273.21952 80.505636,274.61003 C 82.100916,276.11718 84.287101,278.04506 86.512494,279.20452 C 89.288992,281.27946 91.805542,283.68414 94.55839,285.79745 C 95.13429,286.08416 98.31126,289.37284 97.37194,286.92157 z M 106.63299,286.75327 C 108.36096,286.00864 110.01624,285.32675 111.68867,284.62809 C 114.35279,283.50897 117.03359,282.46187 119.58024,281.07112 C 128.17191,277.19459 136.50569,272.68336 145.14374,268.96466 C 148.44121,267.53215 151.52448,265.61899 154.94824,264.43613 C 157.03576,263.37346 159.14126,262.51755 161.26401,261.74678 C 164.18417,260.68094 166.67347,258.9253 169.60833,257.89406 C 174.29248,255.5144 179.22679,253.7034 184.08059,251.73004 C 187.8123,250.99158 186.83474,247.35586 186.65993,244.5897 C 186.19538,241.83371 186.08263,238.94822 185.45645,236.19446 C 185.10352,233.62084 184.46762,230.79402 184.94981,228.27354 C 184.31169,225.85128 184.9099,223.22098 184.4668,220.97935 C 184.8742,218.90919 184.4361,216.68504 184.07136,214.42102 C 183.8271,210.78455 184.14386,207.10405 183.66593,203.49256 C 184.06102,200.9876 183.5782,198.84447 183.29325,196.45174 C 183.02614,185.57227 182.90366,174.68433 182.1626,163.82483 C 182.26044,161.14355 181.6786,158.20525 182.11794,155.71969 C 181.60974,153.25417 182.07575,150.53636 181.41847,147.99933 C 180.62141,146.23981 181.94413,146.39024 181.16603,144.53155 C 180.94892,139.9862 181.17509,135.38548 180.65073,130.88978 C 180.46644,123.82016 181.01414,116.71948 180.29158,109.67327 C 180.4454,107.81952 178.98144,108.11078 177.79874,108.51196 C 175.09714,108.92629 172.86118,110.83053 170.20831,111.18817 C 167.63428,112.07009 165.22273,113.37565 162.6511,114.30477 C 159.66347,115.80595 156.47043,116.84706 153.37387,118.09624 C 152.18976,118.52856 149.5309,120.15378 148.66133,119.67386 C 147.53499,121.20591 144.87749,121.65431 143.05706,122.62023 C 141.12222,123.46262 138.67756,124.08405 136.97638,124.76786 C 134.67648,125.7317 131.73582,126.63757 129.37567,127.98322 C 126.55749,129.22192 123.86308,130.61657 120.92956,131.53272 C 118.13556,132.71291 115.41751,134.18864 112.43686,134.94647 C 110.15654,136.92463 106.6554,136.24086 104.26763,137.95787 C 101.61879,139.27431 98.69051,139.8262 96.09396,141.12926 C 93.22789,142.15058 90.189922,142.6653 87.251503,143.48087 C 87.302976,146.24799 87.061565,149.06701 87.620474,151.76179 C 87.803649,155.60211 88.72803,159.35571 88.959134,163.1959 C 89.543979,166.39006 89.478262,169.50582 89.789424,172.69126 C 89.936014,175.13706 90.378674,177.63129 90.175702,179.79742 C 90.453397,181.83431 90.147377,183.78693 90.386791,185.62991 C 90.780257,190.41375 90.888866,195.24816 91.292892,200.01466 C 92.34282,204.77099 92.55877,209.68712 93.51023,214.47576 C 94.6117,219.34872 95.03424,224.3381 95.59312,229.28085 C 95.78521,232.77908 96.61038,236.21286 96.71703,239.74189 C 96.98522,241.71409 97.24802,243.79612 97.38156,246.11915 C 97.57134,248.7856 97.83027,251.50625 98.65311,254.02656 C 99.10591,258.30566 99.04355,262.64836 99.92209,266.86966 C 100.259,269.90428 100.40359,272.96128 101.03671,275.95462 C 101.4242,279.99578 102.82244,283.84555 103.56879,287.81885 C 104.5955,287.49324 105.71762,287.34935 106.63299,286.75327 z M 105.66593,237.06686 C 104.88037,234.52295 106.44196,231.48366 105.80808,228.72161 C 105.46688,223.85402 105.73592,218.94781 105.1672,214.11251 C 104.92616,210.8653 104.55411,207.62933 104.37886,204.38485 C 103.54417,202.39874 103.44688,199.38496 103.23933,196.8983 C 102.89953,194.26524 102.52505,191.32001 101.65364,188.96232 C 102.16,187.24039 100.95422,184.25107 101.46336,182.41166 C 101.03562,177.98839 100.61134,173.55187 99.95749,169.14896 C 99.38956,167.89311 99.33424,165.93644 99.26669,164.71658 C 99.05374,161.94454 98.65924,159.14315 98.54307,156.34693 C 98.0124,153.50507 97.20863,150.79704 96.72472,147.96408 C 95.9107,145.77565 94.10189,141.56462 98.28207,141.94569 C 101.04749,142.04816 104.05115,143.84915 104.96606,146.58053 C 107.05748,148.63674 106.45624,151.62078 106.88852,154.20706 C 107.28638,156.80827 106.57764,159.36912 107.17772,161.94881 C 107.73067,164.56073 107.56156,167.30176 108.14952,169.92757 C 108.36002,172.76446 108.85926,175.56322 109.03473,178.40816 C 109.50833,181.19778 109.44654,183.60398 109.66173,186.06727 C 109.85769,189.95162 110.02127,193.84758 110.362,197.70516 C 110.23188,202.10305 110.92928,206.44539 111.66909,210.75963 C 111.75521,213.94551 112.22163,217.09433 112.32162,220.2755 C 112.28672,222.8902 112.70838,225.7025 112.90956,228.41143 C 113.2137,231.24824 111.63867,233.79997 110.52009,236.18319 C 109.26575,237.05933 107.10941,237.85346 105.66593,237.06686 z M 108.90085,233.67467 C 110.80422,231.10149 110.05042,228.16011 110.0424,225.2209 C 109.92126,220.81339 109.72153,216.38118 109.10372,212.02296 C 109.32882,209.25087 108.37286,206.23536 108.19357,203.3531 C 107.74859,201.13082 108.24378,198.78138 107.91517,196.60813 C 107.75175,193.7346 107.832,190.67974 107.31338,187.94345 C 107.05548,185.85908 107.1427,183.28414 106.88395,181.60808 C 106.97753,178.99058 106.79847,177.18521 106.18369,174.53192 C 105.89908,171.75522 105.50212,168.91302 105.15053,166.19896 C 105.19741,163.53909 103.85482,160.92164 104.47127,158.52674 C 104.58307,155.7542 103.96265,153.05076 103.99138,150.39676 C 103.31088,148.36506 100.64271,144.06756 98.82834,145.51976 C 99.29205,148.13851 99.9535,150.69674 100.3818,153.32116 C 101.05518,155.72573 101.43017,159.12228 101.16193,161.08459 C 102.01956,162.85033 101.32295,165.99542 102.18255,166.02996 C 102.31434,168.8546 102.93683,171.64689 103.02648,174.48757 C 104.04834,180.07174 103.3216,185.87703 104.75662,191.42297 C 105.27404,193.9762 105.51688,196.92688 105.75555,199.29586 C 105.59564,201.77306 107.30338,204.45597 106.85229,206.90511 C 107.53423,210.91311 107.66671,215.0141 108.14939,219.01864 C 107.75294,221.13566 108.01505,223.54465 108.23633,225.84703 C 109.19773,227.46415 107.81465,229.82938 108.4548,232.31183 C 109.38946,233.00976 107.39882,235.24189 108.90085,233.67467 z M 100.79265,156.65356 C 100.11194,155.9398 100.72252,157.4185 100.79265,156.65356 z M 99.34974,151.68256 C 98.40443,150.87762 98.81316,152.08486 99.34974,151.68256 z M 97.79584,149.86986 C 97.17881,149.44585 97.36087,150.65473 97.79584,149.86986 z M 100.80866,287.20724 C 100.06144,283.92647 99.31414,280.57702 99.14909,277.23186 C 98.34607,274.84801 98.50567,272.34538 97.96906,269.85704 C 97.55723,266.99261 97.64251,263.98134 96.89888,261.20896 C 96.94269,263.68083 97.24885,266.41947 97.38974,268.98694 C 97.77673,272.44748 97.97819,275.97136 98.53517,279.37686 C 98.63541,282.01764 99.31372,284.74526 100.40418,287.09436 C 100.04424,287.5603 101.21131,287.47049 100.80866,287.20724 z M 97.12988,260.77805 C 96.70998,259.70695 96.5567,261.5111 97.12988,260.77805 z M 96.78179,259.26657 C 96.46993,257.18512 96.40724,253.77749 95.63755,252.51672 C 95.69272,255.03228 96.25132,257.57618 96.72957,260.04628 C 97.10064,260.23366 96.5124,259.06384 96.78179,259.26657 z M 95.62333,250.33167 C 94.74659,248.12447 95.66825,252.34539 95.62333,250.33167 z M 95.46412,247.70215 C 94.8122,242.44579 94.52154,237.133 93.75995,231.8854 C 93.16554,229.23419 93.45707,226.42307 92.85271,223.74708 C 93.0258,221.62887 91.804398,218.97768 91.903775,217.65326 C 91.457362,213.86613 90.515978,210.13485 90.376031,206.3063 C 89.454264,202.64968 89.390148,198.84 88.886197,195.11757 C 88.609543,189.92996 88.494616,184.72971 88.097105,179.55156 C 88.151209,177.18218 87.795253,174.48273 87.746196,171.94027 C 87.544089,168.33796 87.173656,164.7469 86.672525,161.19251 C 86.266731,157.59805 85.894466,153.91434 85.275271,150.40286 C 85.300543,148.01515 85.096424,146.08261 84.956544,143.85246 C 84.237112,141.1472 85.838228,137.6336 83.244654,135.48485 C 82.16448,134.59593 79.190348,130.90758 80.091699,134.47884 C 80.444784,137.71354 81.539345,140.78642 81.562244,144.06896 C 82.141141,145.81103 82.412484,148.49475 82.75026,150.81867 C 83.193541,153.61181 83.41543,156.44221 83.996387,159.18396 C 84.791501,162.24664 84.496483,165.44702 84.870194,168.55682 C 84.896233,171.02146 85.620126,173.8048 85.752186,175.96224 C 85.342296,180.70231 86.958924,185.30615 87.094644,190.02882 C 87.682906,193.38296 87.929315,196.79486 88.429938,200.15776 C 89.284792,202.28111 89.082514,204.46793 88.98671,206.68193 C 89.779965,209.67322 89.506746,212.88675 90.141596,215.93517 C 90.710905,218.91659 90.827128,221.98698 91.407481,224.94466 C 91.423329,226.79343 91.958485,229.23674 92.41671,230.64745 C 92.16843,233.31245 93.36024,236.01917 93.62597,238.72423 C 93.82837,242.25314 94.02493,245.84866 95.21832,249.20346 C 95.71862,249.8187 95.53228,247.83318 95.46412,247.70215 z M 84.365685,179.51816 C 83.685069,178.80442 84.295401,180.28288 84.365685,179.51816 z M 87.981812,141.36696 C 91.118321,140.0564 94.52487,139.48219 97.61188,138.03118 C 100.71676,137.16531 103.53587,135.40128 106.62496,134.57046 C 109.20648,134.31925 111.25422,132.69738 113.73306,132.17078 C 117.18093,130.50652 120.84103,129.30241 124.34524,127.75477 C 126.25737,127.11373 127.70414,126.39855 129.77264,125.43597 C 131.74584,123.75293 134.423,123.82914 136.7035,122.5614 C 138.96512,121.45413 141.35211,121.05558 143.47788,119.88526 C 145.56603,118.51507 148.05974,118.20273 150.15554,116.9933 C 152.60331,116.17763 155.01206,115.25427 157.31686,114.06392 C 159.99568,113.33696 162.46359,111.95147 165.05762,110.93726 C 167.49898,109.25417 170.58349,109.05888 173.07031,107.52499 C 174.19472,106.75352 178.58163,106.58465 177.63131,105.12676 C 175.05652,105.20408 172.61287,106.82181 170.10328,107.51207 C 167.87473,108.83279 165.0232,109.38349 162.53748,110.38696 C 158.25264,111.86438 154.07633,113.63072 149.88907,115.36344 C 146.6774,116.54881 143.64663,118.21593 140.36161,119.15707 C 137.16199,120.62547 133.95946,122.28373 130.64978,123.33096 C 128.24226,123.88433 126.4609,125.69448 124.16305,126.06867 C 121.48717,127.27307 118.59674,128.16906 115.97271,129.40685 C 113.18507,130.61723 110.07794,131.23978 107.47499,132.73876 C 105.44047,133.93688 102.74103,134.04514 100.53257,135.25896 C 97.46772,136.07462 94.6511,137.87846 91.459222,138.07251 C 89.514057,139.47552 85.7521,137.10613 86.885336,140.73776 C 86.944508,141.41101 86.813243,142.27003 87.981812,141.36696 z M 91.025269,135.35426 C 96.35298,133.8913 101.60112,131.79326 106.73078,129.96986 C 109.92796,128.40119 113.42125,127.55884 116.65228,126.09185 C 119.55128,124.56953 122.8051,124.14853 125.64413,122.60236 C 127.68145,121.4049 131.24684,120.2017 132.38348,119.69657 C 134.93448,119.12801 137.23571,117.53622 139.75121,116.69106 C 142.17168,115.90724 144.40012,114.82434 146.75307,113.86478 C 150.02099,112.61408 153.15286,111.03336 156.43109,109.79428 C 159.40129,108.70295 162.39639,107.61439 165.30866,106.39622 C 167.7212,105.78386 170.01332,104.57887 172.28535,103.75565 C 174.20113,103.17027 175.61909,101.86081 176.70232,100.34807 C 178.48995,100.16446 179.40955,99.4359 178.77476,97.58236 C 178.10771,94.63349 178.80044,91.50257 177.76741,88.61506 C 176.98324,86.36949 178.42056,83.39279 176.97099,81.051074 C 177.6086,78.945851 176.67509,76.040128 176.34382,73.747244 C 177.09917,72.078057 175.70344,68.989329 176.07359,67.137631 C 175.75835,63.934782 175.75028,60.672654 175.168,57.490861 C 174.70525,54.23344 175.47156,50.750786 174.49203,47.629957 C 173.62974,46.729903 175.62665,48.405871 174.55616,46.685808 C 173.64972,44.770064 174.4204,40.801253 172.6248,40.171308 C 169.83503,41.319646 166.84096,41.931917 163.91222,42.481209 C 162.09157,43.646491 159.09393,43.924478 156.92579,45.005066 C 154.5668,45.522993 152.18638,46.7679 149.83397,47.395213 C 146.44031,48.147804 143.33695,49.831943 139.9639,50.682494 C 137.80754,51.658507 135.75312,52.416025 133.64659,52.986057 C 131.31695,53.657178 129.08719,54.940916 126.67606,55.776274 C 122.23871,57.70986 117.64777,59.200041 113.11665,60.871657 C 108.71286,61.855065 104.53666,63.577274 100.30444,65.090257 C 97.71386,66.050853 95.18707,67.335225 92.62157,68.308857 C 90.331846,68.844587 87.823799,69.667678 85.931881,70.901745 C 82.259294,71.045404 82.320735,74.310773 82.524254,77.166821 C 82.79209,79.628765 82.609727,82.27375 83.105543,84.87991 C 83.459769,89.48093 84.255715,94.02016 84.307485,98.65104 C 84.290646,101.06068 84.702395,104.01889 84.564816,106.1078 C 85.308055,109.11422 84.8235,112.31163 85.529543,115.30478 C 85.592997,120.6563 86.246422,125.97069 86.372166,131.32255 C 86.228582,133.93388 87.184755,136.92694 90.423542,135.49613 L 91.025266,135.35426 L 91.025269,135.35426 z M 96.19812,129.57126 C 93.74782,129.28557 92.06981,125.98134 94.8272,124.93506 C 96.48957,122.91123 95.44214,120.38855 95.59514,118.10576 C 95.54832,116.20305 95.27837,113.21104 94.76286,111.31511 C 94.8249,109.13726 94.06973,105.55529 93.54891,104.19756 C 93.86664,101.35718 93.29826,98.29782 92.83391,95.44575 C 92.74429,92.3246 91.657378,89.37349 91.074938,86.368 C 90.666702,84.97295 90.25565,83.66382 89.475714,83.63376 C 87.680491,82.150129 86.425582,78.641698 88.653899,77.218757 C 91.532014,76.163649 94.68125,77.617266 97.20711,78.985593 C 99.92225,80.581597 100.76551,84.10455 101.18226,87.02544 C 102.41904,91.60462 101.5351,96.46476 102.70977,101.05208 C 102.9088,104.19905 103.90543,107.1621 103.94598,110.33422 C 104.14534,115.07546 104.75057,119.84148 104.37598,124.58133 C 103.52804,127.16391 100.76513,129.29521 98.37454,129.67936 C 97.64893,129.67149 96.91771,129.67908 96.19812,129.57126 z M 99.57173,126.23956 C 102.53521,124.91544 102.12812,122.03818 101.86529,119.48671 C 101.46536,114.6353 101.87758,109.6623 100.65524,104.92421 C 100.18938,100.73238 99.3097,96.59101 99.39888,92.34608 C 99.21704,88.87076 98.64097,85.31237 96.8609,82.252957 C 95.19089,80.923652 91.997587,79.089483 90.218889,79.869667 C 92.83982,82.011553 93.5143,85.14653 94.24977,88.24526 C 94.73819,90.16594 95.03522,92.07376 95.19335,94.37062 C 96.0805,98.82874 96.08059,103.43446 96.92946,107.92074 C 97.56047,111.2953 97.8729,114.71019 98.37754,118.10065 C 98.70332,120.01756 98.15996,120.78666 98.54109,122.98692 C 99.10185,124.03273 97.3546,126.0872 96.79514,126.77303 C 97.72788,126.87277 98.74879,126.69898 99.57173,126.23956 z M 103.12351,121.56667 C 102.67223,121.07942 102.62089,122.30952 103.12351,121.56667 z M 108.49279,135.41325 C 107.12799,135.19048 108.90503,135.84275 108.49279,135.41325 z M 84.208252,130.95866 C 83.792994,128.09408 84.18728,125.24938 83.793433,122.37232 C 83.563663,119.55478 83.894983,116.78685 83.021567,114.10217 C 83.355903,111.97161 82.962407,110.45936 82.767241,108.9237 C 82.473238,106.04042 82.463801,103.18817 82.338028,100.29572 C 81.90791,97.50474 82.187019,94.64699 81.527867,91.90472 C 81.54216,89.48953 80.86963,86.86912 81.01896,84.65909 C 80.330455,81.546428 80.1588,78.283349 80.137777,75.079681 C 80.697495,72.833689 80.148935,71.222551 77.520366,71.318657 C 76.323267,70.93334 72.837146,69.145605 72.840972,69.833987 C 73.848571,72.740424 74.061405,75.87494 74.7021,78.879693 C 75.199058,83.69243 75.607513,88.52902 76.566721,93.27121 C 76.991658,95.79363 77.222772,98.13265 77.14262,100.7965 C 77.041948,103.6106 77.699943,106.12561 77.897537,108.92562 C 78.009145,113.17776 79.05272,117.33585 78.931014,121.60386 C 79.441372,124.20694 78.265308,128.20428 81.000168,129.61011 C 81.472015,130.0908 84.965672,133.64488 84.208252,130.95866 z M 77.636734,126.97775 C 76.271807,126.75512 78.049033,127.40716 77.636734,126.97775 z M 122.92189,125.42386 C 121.55676,125.20116 123.33434,125.85325 122.92189,125.42386 z M 77.414742,121.65005 C 76.049872,121.42762 77.827142,122.07942 77.414742,121.65005 z M 139.34886,117.43236 C 137.9839,117.20971 139.76116,117.86176 139.34886,117.43236 z M 83.88118,68.886856 C 87.586445,67.138676 91.55329,66.097409 95.37132,64.669871 C 98.77273,62.920158 102.45311,61.926103 106.0162,60.566649 C 108.57558,59.558384 111.35798,59.020908 113.85184,58.184059 C 117.28583,57.057329 120.70807,55.714165 124.06286,54.492275 C 126.90882,53.491014 129.64472,52.218955 132.49355,51.201929 C 134.78361,50.164413 137.30793,49.690485 139.45921,48.402357 C 142.5937,47.550973 145.61468,46.357353 148.68183,45.259698 C 155.52265,42.71399 162.53425,40.707758 169.51194,38.59341 C 170.55338,38.160439 172.39915,37.999729 170.27429,37.454657 C 167.66352,36.808898 165.53918,35.386524 163.11498,34.290994 C 161.24976,33.074697 158.80734,32.320356 157.1903,31.330495 C 154.15943,29.695299 151.09096,27.911242 148.02609,26.243906 C 145.88532,24.280116 143.12999,23.591058 140.52816,22.342957 C 138.06833,21.119408 136.25828,19.866581 133.88493,18.472955 C 132.53555,17.747072 131.1074,17.186363 129.70821,16.566658 C 125.79607,18.446977 121.47711,19.30337 117.58788,21.257145 C 113.21037,22.84402 108.90621,24.620943 104.56642,26.212257 C 98.7936,27.959217 93.34822,30.538098 87.733494,32.695158 C 84.269659,33.382086 81.208914,35.297873 77.847462,36.24661 C 74.872058,37.281967 71.813105,38.02991 69.005982,39.50497 C 66.911257,40.569979 64.691615,41.347158 62.373291,42.246606 C 55.981657,44.284775 49.919873,47.14872 43.786871,49.840865 C 42.365486,50.713305 38.1536,51.765601 41.948041,52.487934 C 44.941648,54.07514 48.126169,55.118798 51.142485,56.629557 C 53.943448,58.45838 57.200833,59.394425 60.070265,61.113483 C 63.349703,62.894529 66.942715,63.917899 70.362198,65.352074 C 72.944763,66.890509 75.785964,67.612985 78.499504,68.84127 C 80.223292,69.576013 82.177898,69.867191 83.88118,68.886856 z "
       style="fill:black"
       id="path1882" />
  </g>
</svg>
